<svg width="26" height="23" viewBox="0 0 26 23" fill="none" xmlns="http://www.w3.org/2000/svg">
<path d="M18.3074 21.8899H22.4801V9.86528C22.4801 9.85468 22.4699 9.84711 22.4597 9.85024L0.603866 16.6114C0.597271 16.6135 0.592773 16.6196 0.592773 16.6265V21.8741C0.592773 21.8828 0.599823 21.8899 0.608519 21.8899H13.1898M18.3074 21.8899V4.41145M18.3074 21.8899H13.1898M18.3074 4.41145V0.97707C18.3074 0.964417 18.2932 0.956932 18.2828 0.964063L9.88997 6.68998C9.88567 6.69291 9.8831 6.69778 9.8831 6.70299V21.8899H13.1898M18.3074 4.41145H24.9838C24.9925 4.41145 24.9996 4.4185 24.9996 4.4272V21.8741C24.9996 21.8828 24.9925 21.8899 24.9838 21.8899H13.1898" stroke="#DDD8BA" stroke-width="0.944779"/>
<path d="M13.2062 18.6943C13.1975 18.6943 13.1904 18.7014 13.1904 18.7101V21.4963H15.08V18.7101C15.08 18.7014 15.0729 18.6943 15.0642 18.6943H13.2062Z" fill="#DDD8BA" stroke="#DDD8BA" stroke-width="0.944779"/>
</svg>
