<svg width="15" height="13" viewBox="0 0 15 13" fill="none" xmlns="http://www.w3.org/2000/svg">
<path d="M10.4355 11.8902H12.6581V5.48543C12.6581 5.47979 12.6526 5.47575 12.6472 5.47742L1.00591 9.07868C1.0024 9.07977 1 9.08302 1 9.0867V11.8818C1 11.8864 1.00376 11.8902 1.00839 11.8902H7.70968M10.4355 11.8902V2.58051M10.4355 11.8902H7.70968M10.4355 2.58051V0.751227C10.4355 0.744487 10.4279 0.7405 10.4224 0.744298L5.95205 3.79414C5.94976 3.79571 5.94839 3.7983 5.94839 3.80107V11.8902H7.70968M10.4355 2.58051H13.9916C13.9962 2.58051 14 2.58427 14 2.5889V11.8818C14 11.8864 13.9962 11.8902 13.9916 11.8902H7.70968" stroke="#FFD700" stroke-width="0.503226"/>
<path d="M7.71835 10.1885C7.71372 10.1885 7.70996 10.1922 7.70996 10.1969V11.6809H8.71641V10.1969C8.71641 10.1922 8.71266 10.1885 8.70803 10.1885H7.71835Z" fill="#FFD700" stroke="#FFD700" stroke-width="0.503226"/>
</svg>
